<?xml version="1.0" encoding="UTF-8" standalone="no"?>
<!-- Created with Inkscape (http://www.inkscape.org/) -->

<svg
   version="1.1"
   id="svg1"
   viewBox="0 0 327.67999 74.698671"
   xmlns="http://www.w3.org/2000/svg"
   xmlns:svg="http://www.w3.org/2000/svg"><defs
     id="defs1" /><g
     id="g1"><path
       style="fill:currentColor;fill-opacity:1;stroke-width:0.67359"
       d="m 100.39295,69.141325 c -1.59344,-0.365726 -2.59419,-0.788007 -4.70512,-1.985402 l -1.54079,-0.873987 -0.92302,0.940492 c -1.41348,1.440234 -2.09646,1.685756 -4.17047,1.499228 -4.88793,-0.4396 -4.6794,-0.39357 -5.92205,-1.3072 -1.94811,-1.432294 -2.77916,-2.244056 -3.68293,-3.597469 l -0.86493,-1.295247 0.002,-3.262557 c 0.002,-3.21622 0.011,-3.278291 0.63735,-4.370278 0.8619,-1.502755 2.53363,-3.174626 3.7104,-3.710708 0.5336,-0.243082 1.73738,-0.651791 2.67507,-0.908243 0.93768,-0.256452 1.86667,-0.512799 2.0644,-0.569661 0.29603,-0.08513 0.33931,-0.299614 0.24506,-1.214504 -0.23173,-2.249611 1.56496,-7.432808 3.48154,-10.043711 0.88187,-1.201348 2.42973,-2.179743 4.96693,-3.139583 1.35886,-0.514062 1.73383,-0.562688 3.77211,-0.489176 1.92373,0.06938 2.427,0.166382 3.35469,0.646587 1.00801,0.521786 2.34622,1.763475 2.82761,2.623666 0.2152,0.384553 0.55845,0.267346 3.9485,-1.348257 1.0707,-0.510268 1.42559,-0.564204 3.66433,-0.556907 2.05682,0.0067 2.65191,0.08632 3.4956,0.467641 1.2465,0.563382 3.03511,2.202817 3.76844,3.454149 0.66889,1.141369 1.35792,3.295174 1.35792,4.244649 v 0.703873 l 2.15574,0.118789 c 2.56979,0.141602 3.51875,0.590011 5.0102,2.367459 1.78748,2.130232 2.52704,3.847611 2.53142,5.878434 0.004,1.428609 -0.51211,2.336565 -1.98557,3.499226 -0.93236,0.735701 -1.49725,1.001867 -2.54718,1.200193 -1.19892,0.226469 -1.40855,0.344568 -1.88287,1.060765 -1.32327,1.998075 -4.97025,3.181731 -9.80327,3.181731 h -2.71912 l -0.60674,0.916082 c -1.16528,1.759396 -4.04092,4.405592 -5.69012,5.236117 -1.33717,0.673386 -1.78974,0.787982 -3.40263,0.861575 -1.15761,0.05283 -2.37489,-0.03321 -3.22253,-0.227766 z m 4.39215,-4.729534 c 1.4028,-0.586126 3.06651,-2.27177 4.31121,-4.368063 0.64931,-1.093545 1.39711,-2.1096 1.66177,-2.257897 0.3429,-0.192133 1.50345,-0.254243 4.03776,-0.216096 2.33301,0.03512 3.96232,-0.04215 4.73599,-0.224604 1.14263,-0.269462 1.18487,-0.305625 1.35364,-1.159023 0.27748,-1.403149 0.85054,-1.76882 3.52825,-2.251395 2.75916,-0.497252 3.09951,-0.592749 3.09951,-0.869688 0,-0.428687 -1.05546,-2.260589 -1.58937,-2.758579 -0.52746,-0.491971 -0.65387,-0.511066 -2.61048,-0.394333 -1.83879,0.109703 -2.20204,0.204242 -3.43583,0.894217 -1.77704,0.993777 -2.52327,1.002055 -3.48664,0.03867 -0.66965,-0.669645 -0.73287,-0.843785 -0.73287,-2.018645 0,-1.441497 0.41372,-2.178673 1.55349,-2.768075 0.61514,-0.318096 0.64748,-0.397707 0.55456,-1.36477 -0.23834,-2.480503 -1.62372,-3.893087 -3.81809,-3.893087 -1.55027,0 -4.71292,1.441596 -6.52199,2.972844 -2.13792,1.809613 -3.21026,2.009694 -4.39913,0.820816 -0.70995,-0.709944 -0.73287,-0.786204 -0.73287,-2.438168 0,-1.446654 -0.0702,-1.780697 -0.46311,-2.202393 -0.42642,-0.45771 -0.60146,-0.489804 -2.20938,-0.405097 -1.52096,0.08012 -1.93035,0.195004 -3.17312,0.890387 -1.32079,0.739034 -1.48446,0.914366 -2.20155,2.35828 -0.42607,0.857938 -0.98792,2.361948 -1.24854,3.342245 l -0.47387,1.782357 0.49456,1.055899 c 0.29496,0.629753 0.4456,1.258803 0.37325,1.55865 -0.44227,1.833057 -0.62037,2.256837 -1.18637,2.822836 -0.5249,0.524897 -0.88809,0.662959 -2.11643,0.804525 -1.75295,0.202026 -4.72476,0.988015 -5.43007,1.436154 -0.73789,0.468834 -1.7271,2.153977 -1.88585,3.212586 -0.10958,0.730758 -0.033,1.140089 0.36111,1.929141 0.59564,1.192654 1.88615,2.418933 2.71834,2.583048 0.329,0.06488 1.2436,0.270832 2.03243,0.457666 0.78884,0.186834 1.62394,0.279491 1.85579,0.205905 0.23185,-0.07358 1.04959,-0.883304 1.81721,-1.799375 2.18698,-2.609942 4.05118,-3.260343 5.35796,-1.869338 0.3651,0.388626 0.52235,0.826122 0.5504,1.531282 0.0388,0.976622 0.0528,0.99403 1.30162,1.622484 2.43098,1.223372 4.54567,1.553269 6.01671,0.938626 z m 113.87798,-7.769185 c -1.24078,-0.646291 -2.46528,-2.017455 -3.37239,-3.776314 -0.59228,-1.148407 -0.69573,-1.57692 -0.69573,-2.882111 0,-1.477084 0.51614,-3.80943 1.08346,-4.896042 0.41628,-0.797319 2.46223,-3.463313 3.17565,-4.138077 0.61568,-0.582309 0.62888,-0.634388 0.35512,-1.401068 -0.37867,-1.060502 -0.37178,-2.274447 0.0236,-4.153894 0.41702,-1.982424 0.91276,-3.090428 2.2958,-5.13119 2.38972,-3.526174 4.87948,-5.941721 6.89713,-6.691514 0.39535,-0.146921 1.03979,-0.405753 1.43209,-0.575184 1.01523,-0.438469 3.62892,-0.770581 4.77728,-0.607029 1.38931,0.19787 2.89885,1.077133 4.09364,2.384421 l 1.03148,1.128603 1.98651,-1.011681 1.98652,-1.011682 h 2.41988 c 2.26635,0 2.5005,0.04121 3.69077,0.649593 1.48873,0.760936 3.54308,3.039159 3.94242,4.372037 l 0.25223,0.841882 1.13259,-0.187075 c 3.4366,-0.567646 6.85478,-0.08026 9.0001,1.283295 1.15205,0.732233 2.57207,2.508648 3.3317,4.167889 1.6968,3.706326 0.32228,8.094403 -3.65154,11.657302 -2.38829,2.141318 -3.34756,2.767135 -5.58515,3.6437 -1.53298,0.600537 -2.07216,0.697048 -4.40134,0.787825 -2.18902,0.08532 -2.79621,0.03948 -3.46365,-0.261502 -0.80915,-0.364876 -0.80946,-0.364822 -1.47479,0.256686 -3.03579,2.835853 -6.22866,3.779833 -12.88436,3.809283 -3.22299,0.01426 -4.50683,-0.06778 -6.02669,-0.385104 -1.46911,-0.306735 -1.9522,-0.340446 -2.01872,-0.140872 -0.0481,0.144294 -0.67548,0.642418 -1.39419,1.10694 -2.64043,1.706592 -5.9599,2.191958 -7.93939,1.160883 z m 4.15778,-4.511643 c 1.17621,-0.326321 1.22579,-0.369675 1.36499,-1.19359 0.16139,-0.955204 1.31644,-2.161634 2.06958,-2.161634 0.24031,0 1.27966,0.237913 2.30966,0.528697 2.91708,0.823537 5.13501,1.057847 8.65156,0.913978 4.04326,-0.165418 6.19939,-0.72659 7.97135,-2.074679 l 0.52397,-0.398628 -0.56928,-0.676548 c -1.6471,-1.957467 -0.29682,-4.68577 2.09681,-4.236722 0.86729,0.162703 2.33552,1.355728 2.81893,2.290541 0.42363,0.819212 1.72817,1.282323 3.61218,1.282323 2.53472,0 4.5548,-0.913797 7.05681,-3.192187 2.60327,-2.370604 3.4142,-5.120379 2.09701,-7.110777 -0.73848,-1.115909 -1.3194,-1.501358 -2.87504,-1.907589 -1.01412,-0.264825 -1.56564,-0.278085 -3.19032,-0.0767 -1.08033,0.133912 -2.42482,0.390648 -2.98774,0.570525 -0.57081,0.182398 -1.29523,0.267367 -1.63787,0.19211 -0.98367,-0.216049 -1.95383,-1.393979 -2.3279,-2.826444 -0.66581,-2.549696 -1.63822,-3.539492 -3.47733,-3.539492 -1.39643,0 -1.82036,0.166017 -4.57222,1.790509 -1.93185,1.140418 -2.41327,1.33495 -3.30369,1.33495 -0.91933,0 -1.12534,-0.09061 -1.74617,-0.768059 -0.44513,-0.485708 -0.75555,-1.091219 -0.84444,-1.64713 -0.10283,-0.643024 -0.35333,-1.065877 -0.93292,-1.574764 -0.73243,-0.643078 -0.87516,-0.686048 -1.88724,-0.568157 -0.62826,0.07318 -1.84898,0.500081 -2.86425,1.001658 -1.51358,0.747766 -1.95284,1.099147 -3.0388,2.430835 -1.85717,2.277433 -3.19926,4.755935 -3.38642,6.253866 l -0.15366,1.229877 1.10255,1.035124 c 0.92651,0.869861 1.10254,1.15778 1.10254,1.803379 0,1.044113 -0.58634,1.717689 -2.34913,2.698636 -3.22461,1.79442 -5.03721,5.749312 -3.65788,7.981109 0.44032,0.712465 1.13127,1.155457 1.58826,1.018299 0.11855,-0.03558 0.76479,-0.217072 1.4361,-0.403314 z m -28.41732,-4.742592 c -0.87637,-0.387462 -1.44968,-1.266838 -1.44968,-2.223588 0,-0.59228 0.16947,-0.908206 0.79438,-1.480882 1.09767,-1.005947 2.07622,-1.004398 3.08551,0.005 1.00039,1.000397 1.011,1.99588 0.0324,3.034832 -0.83433,0.885707 -1.53499,1.074851 -2.46255,0.664754 z m -22.81056,-0.775466 c -0.47421,-0.09661 -1.22283,-0.328477 -1.66359,-0.515255 -0.44076,-0.186778 -1.07788,-0.339596 -1.41584,-0.339596 -0.91668,0 -2.75409,-0.587558 -4.57256,-1.462201 -1.99465,-0.95938 -4.70924,-3.58006 -5.74504,-5.546284 -0.90017,-1.708756 -1.97531,-4.791129 -2.35503,-6.751716 -0.6317,-3.261608 -0.22179,-6.844837 1.13364,-9.909706 0.69053,-1.561416 3.0057,-3.814668 4.98201,-4.84876 2.47023,-1.292536 4.33494,-1.755024 7.09959,-1.760848 l 2.42082,-0.0051 0.92019,0.919253 c 0.81489,0.814054 0.9202,1.03198 0.9202,1.904309 0,0.858862 -0.0924,1.058656 -0.72096,1.559559 -2.13768,1.70344 -3.78975,4.296813 -4.37361,6.86559 -0.32386,1.424874 0.0411,3.86264 0.75847,5.065535 1.56015,2.616263 5.46489,3.533965 9.42506,2.215105 1.60287,-0.533801 1.93951,-0.748208 3.33667,-2.125091 2.46428,-2.428516 3.04053,-2.824683 4.10869,-2.824683 1.30184,0 2.1159,0.814096 2.10069,2.100768 -0.0188,1.589619 -0.71739,4.890398 -1.2575,5.941591 -1.02316,1.991308 -2.46828,3.689735 -4.2121,4.950387 -4.15207,3.001636 -4.82016,3.427541 -6.40733,4.084626 -1.73307,0.717485 -2.7774,0.829903 -4.48247,0.482517 z M 133.61875,35.748733 c -0.87636,-0.387462 -1.44966,-1.266839 -1.44966,-2.223588 0,-0.592281 0.16946,-0.908207 0.79436,-1.480883 1.09768,-1.005946 2.07623,-1.004398 3.08551,0.005 1.0004,1.000397 1.011,1.99588 0.0324,3.034832 -0.83432,0.885706 -1.53499,1.074851 -2.46254,0.664755 z m 74.82794,-13.960239 c -0.69704,-0.63879 -0.80807,-0.869723 -0.80807,-1.680754 0,-0.811032 0.11103,-1.041965 0.80807,-1.680755 0.71575,-0.65593 0.90757,-0.727194 1.6789,-0.623736 1.31032,0.175751 1.99057,0.963278 1.99057,2.304491 0,1.341213 -0.68025,2.128739 -1.99057,2.30449 -0.77133,0.103458 -0.96315,0.0322 -1.6789,-0.623736 z"
       id="path2" /></g></svg>
