<svg fill="none" version="1.1" viewBox="0 0 128 128" xmlns="http://www.w3.org/2000/svg">
 <style>path { fill: #212121; }
        @media (prefers-color-scheme: dark) {
        path { fill: #eeeeee; }
        }</style>
 <title>adryd logo</title>
 <path d="m63.994 6.5732a2.0633 2.0633 0 0 0-1.7969 1.0645l-19.047 34.035a12.882 6.6427 0 0 0 0 3.5293l20.77 37.104c-7.1137-12.239-33.432 10.742-42.293 1.7559-0.27655-0.38051-0.71876-0.59406-1.1797-0.56641a1.3611 1.3611 0 0 0-1.1055 0.70312c-3.4 6.0768-14.669 26.203-19.064 34.053a2.1691 2.1691 0 0 0 0 2.1192c0.36874 0.65071 1.0399 1.0566 1.7773 1.0566l38.131-2e-3c1.2255 0 2.3495-0.6691 2.9668-1.7617l20.84-37.227 20.836 37.221c0.61819 1.0936 1.7501 1.7676 2.9766 1.7676h38.168a2.0136 2.0136 0 0 0 1.75-1.0449 2.1148 2.1148 0 0 0 0-2.0918l-61.941-110.65c-0.36874-0.65606-1.0505-1.0645-1.7871-1.0645z"/>
</svg>
