<?xml version="1.0" encoding="UTF-8" standalone="no"?>
<!-- Created with Inkscape (http://www.inkscape.org/) -->

<svg
   version="1.1"
   id="svg1"
   width="327.67999"
   height="74.698669"
   viewBox="0 0 327.67999 74.698671"
   sodipodi:docname="404_graphics.svg"
   xml:space="preserve"
   inkscape:export-filename="ground_dayt.png"
   inkscape:export-xdpi="574.21875"
   inkscape:export-ydpi="574.21875"
   inkscape:version="1.3.2 (091e20ef0f, 2023-11-25, custom)"
   xmlns:inkscape="http://www.inkscape.org/namespaces/inkscape"
   xmlns:sodipodi="http://sodipodi.sourceforge.net/DTD/sodipodi-0.dtd"
   xmlns="http://www.w3.org/2000/svg"
   xmlns:svg="http://www.w3.org/2000/svg"><defs
     id="defs1" /><sodipodi:namedview
     id="namedview1"
     pagecolor="#ffffff"
     bordercolor="#000000"
     borderopacity="0.25"
     inkscape:showpageshadow="2"
     inkscape:pageopacity="0.0"
     inkscape:pagecheckerboard="0"
     inkscape:deskcolor="#d1d1d1"
     inkscape:zoom="0.84206766"
     inkscape:cx="-21.375954"
     inkscape:cy="7.1253181"
     inkscape:window-width="1920"
     inkscape:window-height="1012"
     inkscape:window-x="0"
     inkscape:window-y="32"
     inkscape:window-maximized="1"
     inkscape:current-layer="g1"><inkscape:page
       x="0"
       y="0"
       width="327.67999"
       height="74.698669"
       id="page3"
       margin="0"
       bleed="0" /><inkscape:page
       x="0"
       y="92.47065"
       width="327.67999"
       height="128.09241"
       id="page4"
       margin="0 2.6757812e-06 0 0"
       bleed="0"
       inkscape:export-filename="ground_night.svg"
       inkscape:export-xdpi="574.21875"
       inkscape:export-ydpi="574.21875" /></sodipodi:namedview><g
     inkscape:groupmode="layer"
     inkscape:label="Image"
     id="g1"><path
       style="fill:#e5e5e5;fill-opacity:1;stroke-width:0.67359"
       d="m 74.317589,218.1185 c -1.154618,-1.15462 -1.042059,-1.8603 1.10362,-6.91912 0.553117,-1.30407 1.58578,-3.86455 2.294807,-5.68994 0.709027,-1.8254 1.422741,-3.52285 1.586032,-3.77211 0.668404,-1.02031 1.244583,-4.28112 1.37504,-7.78186 0.122069,-3.27564 0.160855,-3.5126 0.772594,-4.71994 0.354239,-0.69913 0.960467,-1.52361 1.347173,-1.83216 l 0.703102,-0.56101 -0.0048,-12.50183 c -0.0048,-12.45938 -0.0062,-12.50001 -0.427529,-11.96296 -0.232509,0.29638 -0.482163,0.73286 -0.554785,0.96997 -0.07262,0.2371 -0.547474,1.49806 -1.055225,2.80213 -0.507751,1.30407 -0.988451,2.67409 -1.06822,3.0445 -0.234868,1.09059 -1.053904,1.69758 -2.29063,1.69758 -0.84437,0 -1.165578,-0.1101 -1.605938,-0.55046 -0.889755,-0.88976 -0.90135,-1.7856 -0.0547,-4.22621 l 0.744142,-2.14513 -0.768668,-0.0218 c -0.58352,-0.0166 -0.930938,-0.19885 -1.442359,-0.75691 -0.617943,-0.67429 -0.711947,-0.98364 -1.135952,-3.7382 -0.254243,-1.65169 -0.524555,-3.51555 -0.600693,-4.14191 -0.07614,-0.62636 -0.186678,-1.09059 -0.245642,-1.03162 -0.41822,0.41822 -0.682975,4.54753 -0.689894,10.76007 l -0.0077,6.86524 -0.732867,0.73286 c -0.83017,0.83017 -1.668874,0.95099 -2.7436,0.39523 -1.122387,-0.58041 -1.265977,-1.29516 -1.262357,-6.28356 0.003,-4.20109 -0.144739,-7.8408 -0.654505,-16.11921 -0.325603,-5.28766 -0.708619,-9.36067 -0.87083,-9.26041 -0.285536,0.17647 -2.723166,3.89277 -3.444015,5.25058 -0.754622,1.42143 -1.632601,2.17539 -2.534928,2.17686 -1.212943,0.002 -2.414221,-1.20974 -2.414221,-2.4352 0,-1.33424 3.670669,-6.81103 6.626898,-9.88762 1.627585,-1.69385 2.210606,-2.44596 2.210606,-2.85175 0,-0.83697 -1.05349,-3.28969 -2.138338,-4.97843 -0.533101,-0.82987 -1.419604,-2.67281 -1.970009,-4.09543 -0.550394,-1.42262 -1.16294,-2.96767 -1.361203,-3.43345 -0.198262,-0.46577 -0.688975,-2.16322 -1.090473,-3.7721 -1.871956,-7.50132 -1.933159,-8.18092 -0.839558,-9.32239 0.814158,-0.8498 1.787636,-1.08781 4.058583,-0.99231 1.97624,0.0831 4.285605,0.64323 7.327126,1.77714 0.829017,0.30907 2.4184,0.81015 3.531961,1.11352 1.11356,0.30336 2.472209,0.74369 3.01922,0.9785 0.547011,0.23481 1.397473,0.50244 1.889917,0.59473 l 0.895353,0.1678 0.976435,-2.17767 c 2.579422,-5.75271 4.047483,-9.712435 4.763118,-12.847346 0.517659,-2.26765 1.896034,-3.129164 3.598192,-2.24894 0.362202,0.1873 0.78888,0.66303 0.958263,1.06842 0.265255,0.63484 0.262423,0.93716 -0.02157,2.302831 -0.361362,1.73773 -1.817113,6.307585 -2.512752,7.887965 -0.245178,0.55701 -0.616264,1.44923 -0.824634,1.98272 -0.20837,0.53348 -0.527041,1.30946 -0.708157,1.72439 l -0.329303,0.75442 2.63287,-0.0656 c 4.795535,-0.11947 7.327036,0.77633 10.340405,3.65905 0.95729,0.91579 2.072519,1.79142 2.478279,1.94586 1.04384,0.39728 1.47414,1.10694 1.86919,3.08263 0.18964,0.94842 0.76465,2.79136 1.2778,4.09543 0.51316,1.30407 0.99822,2.58938 1.07792,2.85625 0.0797,0.26687 0.34131,0.59032 0.58134,0.71879 0.57666,0.30862 1.42199,2.25845 1.80467,4.16262 0.29859,1.48581 1.09888,7.57245 1.71752,13.0628 0.98455,8.73755 1.18758,10.8159 1.18653,12.14618 -0.001,1.39108 -0.0436,1.51891 -0.73404,2.20937 -0.40307,0.40308 -0.88053,0.73287 -1.06103,0.73287 -0.18526,0 -0.43897,0.33576 -0.58265,0.7711 -0.5114,1.54959 -2.46328,2.0857 -3.66686,1.00717 -0.85498,-0.76614 -0.98688,-1.38931 -1.40007,-6.61461 -0.1869,-2.3636 -0.57702,-6.18506 -0.86693,-8.49213 -0.2899,-2.30708 -0.5271,-4.97286 -0.5271,-5.92396 v -1.72928 l -1.19331,1.31865 c -1.311751,1.44954 -3.409995,2.94156 -5.32748,3.78827 -0.681918,0.30111 -2.489579,0.86465 -4.017026,1.2523 l -2.777174,0.70481 -0.130418,1.08513 c -0.07173,0.59682 -0.131259,2.50813 -0.13229,4.24735 l -0.0019,3.16222 0.619578,0.13608 c 0.878524,0.19296 1.472885,0.91838 1.744128,2.12872 0.128786,0.57467 0.734283,1.98108 1.34555,3.12537 2.701275,5.05676 4.145468,8.40498 5.686328,13.1832 1.2928,4.00898 1.329334,4.52491 0.383343,5.41362 -0.423793,0.39813 -0.784903,0.51206 -1.623117,0.51206 -1.558651,0 -2.10256,-0.68793 -3.105821,-3.92816 -1.227445,-3.96429 -1.394013,-4.44909 -1.686751,-4.90935 -0.150806,-0.2371 -0.379604,-0.72208 -0.508438,-1.07774 -0.626419,-1.72927 -1.763266,-4.20578 -2.279237,-4.9651 l -0.575536,-0.84702 v 14.03185 14.03186 l 0.764847,2.45378 c 1.542426,4.94842 3.200746,8.95994 5.870626,14.2012 1.237993,2.43031 2.447122,4.69478 2.686954,5.03217 0.266441,0.37482 0.436058,0.95593 0.436058,1.49397 0,0.74207 -0.127068,0.99699 -0.808068,1.62107 -0.708721,0.6495 -0.912127,0.72658 -1.654463,0.62702 -0.465518,-0.0624 -0.994095,-0.23611 -1.174616,-0.38593 -1.272047,-1.0557 -5.974732,-10.32985 -8.105573,-15.98498 -0.390569,-1.03655 -0.761203,-1.88527 -0.823631,-1.88605 -0.06243,-6.7e-4 -0.340003,1.05568 -0.616835,2.34771 -0.276831,1.29202 -0.74512,2.91672 -1.040643,3.61044 -0.295522,0.69372 -1.003776,2.42527 -1.573898,3.8479 -1.97801,4.93571 -3.0502,7.5487 -3.449412,8.4064 -0.220715,0.47422 -0.465742,1.12789 -0.544505,1.45263 -0.07876,0.32474 -0.475817,0.88247 -0.882342,1.2394 -1.04594,0.91836 -2.034268,0.8908 -3.008955,-0.0838 z m 6.467253,-60.88996 c 0.581338,-0.90242 1.41966,-2.02875 1.862938,-2.50296 l 0.80596,-0.8622 0.09663,-4.33527 0.09663,-4.33527 -2.713987,-0.14399 c -1.492692,-0.0792 -3.188775,-0.20387 -3.769072,-0.27705 l -1.055086,-0.13307 0.14404,0.62468 c 0.403283,1.74896 1.276668,6.88102 1.757021,10.32437 0.297689,2.13393 0.59663,4.12237 0.664313,4.41875 0.11973,0.52428 0.135662,0.51617 0.588351,-0.29918 0.255908,-0.46093 0.940928,-1.5764 1.522265,-2.47881 z M 71.14751,142.82061 c -0.05465,-0.20972 -0.10296,-0.0903 -0.107353,0.26533 -0.0043,0.35566 0.04032,0.52725 0.09937,0.38131 0.05904,-0.14593 0.06264,-0.43692 0.008,-0.64664 z m 17.633407,-2.94413 c 7.812844,-1.63677 10.902521,-4.95293 10.967245,-11.77118 0.03011,-3.1721 -0.465106,-5.17701 -1.918618,-7.76758 -1.322084,-2.35634 -3.147888,-4.26014 -4.77706,-4.98112 -1.775168,-0.7856 -7.828123,-0.8438 -7.828123,-0.0753 0,0.61879 -0.990841,1.44444 -2.05509,1.71247 -1.065721,0.26841 -1.075777,0.27925 -2.316102,2.49683 -0.685153,1.22499 -2.050647,3.44617 -3.034429,4.93597 -0.983784,1.4898 -2.593202,4.11518 -3.576487,5.83418 -0.983285,1.719 -1.940963,3.30013 -2.128174,3.51362 -0.369362,0.4212 -0.377769,1.45493 -0.02266,2.78696 0.220295,0.82635 1.176002,1.90253 2.155172,2.42685 0.543784,0.29118 3.34534,1.05745 4.619086,1.2634 1.286853,0.20807 8.419557,-0.0618 9.915247,-0.37513 z m 0.01595,-3.68521 c -1.240208,-0.44186 -2.285772,-1.57811 -2.428013,-2.6386 -0.103698,-0.77313 -0.03279,-0.96424 0.623533,-1.68041 0.63051,-0.688 0.875099,-0.80807 1.64618,-0.80807 0.536072,0 1.064688,0.14394 1.29539,0.35272 0.262581,0.23763 0.781073,0.35272 1.589119,0.35272 1.322818,0 1.461043,-0.13452 1.461043,-1.42187 0,-1.08114 1.183347,-2.32868 2.208865,-2.32868 2.080711,0 3.200283,2.5955 2.12918,4.93606 -0.609135,1.33109 -2.295694,3.07671 -3.220866,3.33367 -1.135904,0.31549 -4.308936,0.25714 -5.304431,-0.0975 z m -5.980141,-5.06766 c -1.027818,-0.34224 -2.57977,-0.76876 -3.448781,-0.94783 -1.263268,-0.26031 -1.698853,-0.45795 -2.172779,-0.98588 -0.854669,-0.95205 -0.806299,-1.936 0.146187,-2.97381 0.703003,-0.76598 0.799989,-0.80329 1.993827,-0.76693 0.720745,0.0219 2.331881,0.366 3.785152,0.8083 1.391651,0.42356 2.735059,0.7701 2.985352,0.7701 0.720344,0 1.920811,1.34035 1.920811,2.14464 0,1.48448 -1.199795,2.6161 -2.741325,2.58554 -0.329824,-0.006 -1.440624,-0.2919 -2.468444,-0.63413 z m 8.335227,-6.25026 c -1.066966,-0.21958 -2.946005,-0.5488 -4.175642,-0.73159 -2.502718,-0.37205 -3.156826,-0.69261 -3.605771,-1.76708 -0.407526,-0.97535 -0.206758,-1.66301 0.724161,-2.48036 0.727328,-0.63861 0.83422,-0.66629 2.186591,-0.56639 1.252175,0.0925 5.974205,0.82301 7.291633,1.12802 0.690183,0.1598 1.928928,1.31031 2.086422,1.93782 0.173882,0.6928 -0.345586,1.92428 -0.986721,2.33916 -0.825353,0.5341 -1.480775,0.56024 -3.520673,0.14042 z m -21.229382,-2.87546 c 0.432135,-1.36297 2.306401,-4.18748 3.846533,-5.79669 0.536331,-0.56039 0.9237,-1.07034 0.860822,-1.13322 -0.06288,-0.0629 -1.272213,-0.43817 -2.687407,-0.83397 -1.415195,-0.39581 -2.782852,-0.83191 -3.039239,-0.96913 -0.256387,-0.13721 -1.369133,-0.50058 -2.47277,-0.80749 -3.239076,-0.90073 -2.996901,-0.89576 -2.839122,-0.0583 0.70288,3.73064 2.731666,9.93439 4.202214,12.84981 l 0.461869,0.91567 0.736702,-1.77787 c 0.405186,-0.97783 0.823865,-2.05278 0.930398,-2.38879 z m 58.266859,83.28449 c -1.38831,-0.59237 -5.50544,-8.05178 -6.7871,-12.29687 -0.23265,-0.7706 -0.54201,-1.67771 -0.68748,-2.01581 l -0.26448,-0.61473 -0.35942,0.72251 c -1.32832,2.67013 -2.28248,6.37057 -2.51509,9.75407 l -0.16153,2.34957 -0.78785,0.722 c -1.10357,1.01135 -2.0702,0.99795 -3.11128,-0.0431 l -0.76514,-0.76515 0.1406,-2.62975 c 0.22383,-4.18626 1.37332,-8.3533 3.42594,-12.41943 0.44419,-0.87992 0.77781,-1.62967 0.74137,-1.66612 -0.0364,-0.0364 -0.71448,-0.15806 -1.50673,-0.27025 -1.78181,-0.25234 -3.47489,-1.00909 -4.66678,-2.08588 -2.16531,-1.95622 -3.40993,-4.81467 -3.69262,-8.48061 -0.16173,-2.09727 -0.27024,-2.57802 -0.73233,-3.24482 -0.29835,-0.43053 -0.54246,-1.08536 -0.54246,-1.45518 0,-0.77162 0.86571,-1.92884 1.6724,-2.23554 0.81722,-0.31071 2.01191,0.12607 2.9375,1.07396 0.78939,0.8084 0.84001,0.94729 1.12142,3.07628 0.16208,1.22631 0.3007,2.66615 0.30803,3.19963 0.024,1.74502 1.35369,4.24103 2.64639,4.96758 0.92442,0.51955 3.57778,0.89907 6.29491,0.9004 2.52078,0.002 8.46558,-1.5836 12.1321,-3.23431 l 0.92355,-0.41579 -1.81679,-0.80954 c -0.99924,-0.44524 -2.30346,-1.23525 -2.89828,-1.75558 -1.05128,-0.91964 -1.12264,-0.94609 -2.55554,-0.94721 -1.7759,-0.001 -5.68312,-0.64772 -8.45806,-1.39916 -1.99815,-0.54108 -5.36189,-2.14321 -6.79542,-3.23661 -1.42515,-1.08702 -1.54242,-2.71683 -0.2829,-3.9317 0.89481,-0.86309 1.22513,-0.97677 4.47039,-1.53844 2.92963,-0.50704 3.52887,-0.66355 5.53325,-1.44507 0.73154,-0.28523 1.71888,-0.5186 2.19409,-0.5186 h 0.86402 l 0.35353,-1.21607 0.35352,-1.21606 -0.84743,-0.88554 c -2.66989,-2.78998 -3.7724,-4.87357 -3.79887,-7.17938 -0.0175,-1.52848 -0.004,-1.56503 0.84337,-2.43428 1.09417,-1.12124 2.59066,-1.60174 4.36641,-1.40195 1.346,0.15143 6.14181,1.40952 7.99849,2.09824 l 1.15535,0.42857 1.53901,-0.44744 c 2.16053,-0.62814 3.8229,-0.76077 6.08619,-0.48558 3.1623,0.3845 4.51832,0.91113 6.15911,2.392 2.68692,2.42505 3.62771,4.68503 3.62771,8.71445 0,2.69795 -0.31073,4.09195 -1.31295,5.89019 -1.6339,2.93162 -3.72151,5.00424 -6.36783,6.32211 -0.81402,0.40538 -1.51282,0.75368 -1.5529,0.77399 -0.26758,0.13567 1.04363,1.39315 1.87063,1.79398 1.18048,0.57216 4.29549,2.59143 5.54159,3.59228 0.88309,0.70929 4.1467,2.07936 5.60479,2.35289 0.94058,0.17645 2.15198,1.17227 2.34068,1.92412 0.18327,0.73021 -0.35684,1.93053 -1.0827,2.40613 -0.85929,0.56303 -2.06037,0.44637 -4.70389,-0.4569 -2.25955,-0.77206 -3.65585,-1.51322 -5.94168,-3.15387 -1.43218,-1.02793 -3.98699,-2.56797 -4.2601,-2.56797 -0.65225,0 -0.88587,2.31442 -0.46923,4.6486 0.36923,2.06856 2.51359,5.52833 5.21895,8.42035 1.21894,1.30307 1.34255,1.52117 1.34255,2.36908 0,1.36128 -0.81083,2.1292 -2.24816,2.1292 -1.43586,0 -2.20031,-0.65065 -4.77107,-4.06073 -3.26224,-4.32739 -4.09427,-6.17133 -4.41707,-9.78921 l -0.13951,-1.56367 -1.21743,0.64004 c -2.0138,1.05869 -4.48793,1.91173 -7.89946,2.72358 -1.77827,0.42318 -3.35328,0.80637 -3.49999,0.85153 -0.19531,0.0601 -0.15786,0.27186 0.13978,0.79044 0.22361,0.38957 0.62084,1.3873 0.88274,2.21717 0.26189,0.82985 0.85372,2.48812 1.31516,3.68503 0.46145,1.19691 0.83899,2.2401 0.83899,2.31823 0,0.25383 3.06238,5.61498 3.64094,6.37401 0.77913,1.02216 0.78016,2.37567 0.003,3.15343 -0.61396,0.61398 -1.92338,0.87402 -2.71028,0.53827 z m 5.11643,-35.47567 c 0.59981,-0.31017 0.91225,-0.32684 2.28901,-0.12207 2.42106,0.36009 3.76053,0.28943 5.60719,-0.29578 1.97973,-0.62739 3.52318,-1.84625 4.73315,-3.73775 1.12164,-1.75339 1.42019,-2.7267 1.43387,-4.67461 0.0164,-2.34347 -0.44131,-3.63132 -1.74029,-4.89619 -1.15628,-1.1259 -1.91946,-1.39869 -4.4695,-1.59755 -6.37008,-0.49675 -12.66245,5.09437 -12.36014,10.98267 0.0629,1.22428 0.24078,1.88555 0.85404,3.17425 0.42605,0.89529 1.09322,1.99065 1.4826,2.43413 l 0.70796,0.80633 0.38374,-0.85711 c 0.2351,-0.5251 0.65283,-0.99626 1.07837,-1.21632 z m 5.539,-1.28843 c -0.64958,-0.3653 -1.24212,-1.341 -1.24212,-2.04529 0,-0.24887 0.14005,-0.72333 0.31122,-1.05434 l 0.31123,-0.60184 -1.01176,0.16659 c -0.55647,0.0916 -1.32944,0.28061 -1.71771,0.41997 -1.64155,0.58917 -3.17393,-0.406 -3.17393,-2.06123 0,-1.25697 0.99705,-2.3335 2.49376,-2.69256 0.98148,-0.23544 1.02456,-0.27561 0.80717,-0.75271 -0.29793,-0.65388 -0.0665,-1.85228 0.49587,-2.56714 0.6539,-0.8313 1.48349,-1.17998 3.18334,-1.33796 l 1.51685,-0.14098 0.76301,0.76302 c 0.58491,0.58491 0.76303,0.9403 0.76303,1.52246 0,0.99207 -0.84429,1.99855 -1.95583,2.33158 -0.46548,0.13946 -0.84631,0.29012 -0.84631,0.3348 0,0.0447 0.15799,0.32237 0.35109,0.61708 0.24481,0.37362 0.3153,0.80265 0.23287,1.4172 l -0.1182,0.88138 0.62068,-0.59466 c 0.41713,-0.39964 0.69727,-0.9635 0.85417,-1.71928 0.31125,-1.49929 1.00148,-2.15227 2.27505,-2.15227 1.44829,0 2.09498,0.75183 2.21077,2.57018 0.14189,2.22845 -0.91119,3.96907 -3.53336,5.84021 -1.58747,1.1328 -2.64864,1.3857 -3.59089,0.85579 z m -14.07291,0.81074 c -0.0877,-0.20747 -0.25946,-0.78732 -0.38161,-1.28856 -0.20368,-0.83575 -0.26835,-0.90029 -0.77963,-0.77806 -0.30663,0.0733 -0.80001,0.25203 -1.09639,0.39716 -0.29638,0.14513 -1.0685,0.43708 -1.71581,0.64877 -1.02619,0.33559 -1.11565,0.40756 -0.69844,0.5619 0.79234,0.2931 3.33478,0.79965 4.10781,0.81842 0.60925,0.0148 0.69839,-0.042 0.56407,-0.35963 z m 3.6268,-14.37803 0.80254,-0.9601 -1.45743,-0.41944 c -0.80159,-0.23069 -1.71996,-0.46336 -2.04083,-0.51705 -0.53412,-0.0894 -0.56331,-0.0593 -0.34568,0.35568 0.31824,0.6069 1.90034,2.50102 2.08901,2.50102 0.0825,0 0.51099,-0.43205 0.95239,-0.96011 z"
       id="path1" /><path
       style="fill:#e5e5e5;fill-opacity:1;stroke-width:0.67359"
       d="m 100.39295,69.141325 c -1.59344,-0.365726 -2.59419,-0.788007 -4.70512,-1.985402 l -1.54079,-0.873987 -0.92302,0.940492 c -1.41348,1.440234 -2.09646,1.685756 -4.17047,1.499228 -4.88793,-0.4396 -4.6794,-0.39357 -5.92205,-1.3072 -1.94811,-1.432294 -2.77916,-2.244056 -3.68293,-3.597469 l -0.86493,-1.295247 0.002,-3.262557 c 0.002,-3.21622 0.011,-3.278291 0.63735,-4.370278 0.8619,-1.502755 2.53363,-3.174626 3.7104,-3.710708 0.5336,-0.243082 1.73738,-0.651791 2.67507,-0.908243 0.93768,-0.256452 1.86667,-0.512799 2.0644,-0.569661 0.29603,-0.08513 0.33931,-0.299614 0.24506,-1.214504 -0.23173,-2.249611 1.56496,-7.432808 3.48154,-10.043711 0.88187,-1.201348 2.42973,-2.179743 4.96693,-3.139583 1.35886,-0.514062 1.73383,-0.562688 3.77211,-0.489176 1.92373,0.06938 2.427,0.166382 3.35469,0.646587 1.00801,0.521786 2.34622,1.763475 2.82761,2.623666 0.2152,0.384553 0.55845,0.267346 3.9485,-1.348257 1.0707,-0.510268 1.42559,-0.564204 3.66433,-0.556907 2.05682,0.0067 2.65191,0.08632 3.4956,0.467641 1.2465,0.563382 3.03511,2.202817 3.76844,3.454149 0.66889,1.141369 1.35792,3.295174 1.35792,4.244649 v 0.703873 l 2.15574,0.118789 c 2.56979,0.141602 3.51875,0.590011 5.0102,2.367459 1.78748,2.130232 2.52704,3.847611 2.53142,5.878434 0.004,1.428609 -0.51211,2.336565 -1.98557,3.499226 -0.93236,0.735701 -1.49725,1.001867 -2.54718,1.200193 -1.19892,0.226469 -1.40855,0.344568 -1.88287,1.060765 -1.32327,1.998075 -4.97025,3.181731 -9.80327,3.181731 h -2.71912 l -0.60674,0.916082 c -1.16528,1.759396 -4.04092,4.405592 -5.69012,5.236117 -1.33717,0.673386 -1.78974,0.787982 -3.40263,0.861575 -1.15761,0.05283 -2.37489,-0.03321 -3.22253,-0.227766 z m 4.39215,-4.729534 c 1.4028,-0.586126 3.06651,-2.27177 4.31121,-4.368063 0.64931,-1.093545 1.39711,-2.1096 1.66177,-2.257897 0.3429,-0.192133 1.50345,-0.254243 4.03776,-0.216096 2.33301,0.03512 3.96232,-0.04215 4.73599,-0.224604 1.14263,-0.269462 1.18487,-0.305625 1.35364,-1.159023 0.27748,-1.403149 0.85054,-1.76882 3.52825,-2.251395 2.75916,-0.497252 3.09951,-0.592749 3.09951,-0.869688 0,-0.428687 -1.05546,-2.260589 -1.58937,-2.758579 -0.52746,-0.491971 -0.65387,-0.511066 -2.61048,-0.394333 -1.83879,0.109703 -2.20204,0.204242 -3.43583,0.894217 -1.77704,0.993777 -2.52327,1.002055 -3.48664,0.03867 -0.66965,-0.669645 -0.73287,-0.843785 -0.73287,-2.018645 0,-1.441497 0.41372,-2.178673 1.55349,-2.768075 0.61514,-0.318096 0.64748,-0.397707 0.55456,-1.36477 -0.23834,-2.480503 -1.62372,-3.893087 -3.81809,-3.893087 -1.55027,0 -4.71292,1.441596 -6.52199,2.972844 -2.13792,1.809613 -3.21026,2.009694 -4.39913,0.820816 -0.70995,-0.709944 -0.73287,-0.786204 -0.73287,-2.438168 0,-1.446654 -0.0702,-1.780697 -0.46311,-2.202393 -0.42642,-0.45771 -0.60146,-0.489804 -2.20938,-0.405097 -1.52096,0.08012 -1.93035,0.195004 -3.17312,0.890387 -1.32079,0.739034 -1.48446,0.914366 -2.20155,2.35828 -0.42607,0.857938 -0.98792,2.361948 -1.24854,3.342245 l -0.47387,1.782357 0.49456,1.055899 c 0.29496,0.629753 0.4456,1.258803 0.37325,1.55865 -0.44227,1.833057 -0.62037,2.256837 -1.18637,2.822836 -0.5249,0.524897 -0.88809,0.662959 -2.11643,0.804525 -1.75295,0.202026 -4.72476,0.988015 -5.43007,1.436154 -0.73789,0.468834 -1.7271,2.153977 -1.88585,3.212586 -0.10958,0.730758 -0.033,1.140089 0.36111,1.929141 0.59564,1.192654 1.88615,2.418933 2.71834,2.583048 0.329,0.06488 1.2436,0.270832 2.03243,0.457666 0.78884,0.186834 1.62394,0.279491 1.85579,0.205905 0.23185,-0.07358 1.04959,-0.883304 1.81721,-1.799375 2.18698,-2.609942 4.05118,-3.260343 5.35796,-1.869338 0.3651,0.388626 0.52235,0.826122 0.5504,1.531282 0.0388,0.976622 0.0528,0.99403 1.30162,1.622484 2.43098,1.223372 4.54567,1.553269 6.01671,0.938626 z m 113.87798,-7.769185 c -1.24078,-0.646291 -2.46528,-2.017455 -3.37239,-3.776314 -0.59228,-1.148407 -0.69573,-1.57692 -0.69573,-2.882111 0,-1.477084 0.51614,-3.80943 1.08346,-4.896042 0.41628,-0.797319 2.46223,-3.463313 3.17565,-4.138077 0.61568,-0.582309 0.62888,-0.634388 0.35512,-1.401068 -0.37867,-1.060502 -0.37178,-2.274447 0.0236,-4.153894 0.41702,-1.982424 0.91276,-3.090428 2.2958,-5.13119 2.38972,-3.526174 4.87948,-5.941721 6.89713,-6.691514 0.39535,-0.146921 1.03979,-0.405753 1.43209,-0.575184 1.01523,-0.438469 3.62892,-0.770581 4.77728,-0.607029 1.38931,0.19787 2.89885,1.077133 4.09364,2.384421 l 1.03148,1.128603 1.98651,-1.011681 1.98652,-1.011682 h 2.41988 c 2.26635,0 2.5005,0.04121 3.69077,0.649593 1.48873,0.760936 3.54308,3.039159 3.94242,4.372037 l 0.25223,0.841882 1.13259,-0.187075 c 3.4366,-0.567646 6.85478,-0.08026 9.0001,1.283295 1.15205,0.732233 2.57207,2.508648 3.3317,4.167889 1.6968,3.706326 0.32228,8.094403 -3.65154,11.657302 -2.38829,2.141318 -3.34756,2.767135 -5.58515,3.6437 -1.53298,0.600537 -2.07216,0.697048 -4.40134,0.787825 -2.18902,0.08532 -2.79621,0.03948 -3.46365,-0.261502 -0.80915,-0.364876 -0.80946,-0.364822 -1.47479,0.256686 -3.03579,2.835853 -6.22866,3.779833 -12.88436,3.809283 -3.22299,0.01426 -4.50683,-0.06778 -6.02669,-0.385104 -1.46911,-0.306735 -1.9522,-0.340446 -2.01872,-0.140872 -0.0481,0.144294 -0.67548,0.642418 -1.39419,1.10694 -2.64043,1.706592 -5.9599,2.191958 -7.93939,1.160883 z m 4.15778,-4.511643 c 1.17621,-0.326321 1.22579,-0.369675 1.36499,-1.19359 0.16139,-0.955204 1.31644,-2.161634 2.06958,-2.161634 0.24031,0 1.27966,0.237913 2.30966,0.528697 2.91708,0.823537 5.13501,1.057847 8.65156,0.913978 4.04326,-0.165418 6.19939,-0.72659 7.97135,-2.074679 l 0.52397,-0.398628 -0.56928,-0.676548 c -1.6471,-1.957467 -0.29682,-4.68577 2.09681,-4.236722 0.86729,0.162703 2.33552,1.355728 2.81893,2.290541 0.42363,0.819212 1.72817,1.282323 3.61218,1.282323 2.53472,0 4.5548,-0.913797 7.05681,-3.192187 2.60327,-2.370604 3.4142,-5.120379 2.09701,-7.110777 -0.73848,-1.115909 -1.3194,-1.501358 -2.87504,-1.907589 -1.01412,-0.264825 -1.56564,-0.278085 -3.19032,-0.0767 -1.08033,0.133912 -2.42482,0.390648 -2.98774,0.570525 -0.57081,0.182398 -1.29523,0.267367 -1.63787,0.19211 -0.98367,-0.216049 -1.95383,-1.393979 -2.3279,-2.826444 -0.66581,-2.549696 -1.63822,-3.539492 -3.47733,-3.539492 -1.39643,0 -1.82036,0.166017 -4.57222,1.790509 -1.93185,1.140418 -2.41327,1.33495 -3.30369,1.33495 -0.91933,0 -1.12534,-0.09061 -1.74617,-0.768059 -0.44513,-0.485708 -0.75555,-1.091219 -0.84444,-1.64713 -0.10283,-0.643024 -0.35333,-1.065877 -0.93292,-1.574764 -0.73243,-0.643078 -0.87516,-0.686048 -1.88724,-0.568157 -0.62826,0.07318 -1.84898,0.500081 -2.86425,1.001658 -1.51358,0.747766 -1.95284,1.099147 -3.0388,2.430835 -1.85717,2.277433 -3.19926,4.755935 -3.38642,6.253866 l -0.15366,1.229877 1.10255,1.035124 c 0.92651,0.869861 1.10254,1.15778 1.10254,1.803379 0,1.044113 -0.58634,1.717689 -2.34913,2.698636 -3.22461,1.79442 -5.03721,5.749312 -3.65788,7.981109 0.44032,0.712465 1.13127,1.155457 1.58826,1.018299 0.11855,-0.03558 0.76479,-0.217072 1.4361,-0.403314 z m -28.41732,-4.742592 c -0.87637,-0.387462 -1.44968,-1.266838 -1.44968,-2.223588 0,-0.59228 0.16947,-0.908206 0.79438,-1.480882 1.09767,-1.005947 2.07622,-1.004398 3.08551,0.005 1.00039,1.000397 1.011,1.99588 0.0324,3.034832 -0.83433,0.885707 -1.53499,1.074851 -2.46255,0.664754 z m -22.81056,-0.775466 c -0.47421,-0.09661 -1.22283,-0.328477 -1.66359,-0.515255 -0.44076,-0.186778 -1.07788,-0.339596 -1.41584,-0.339596 -0.91668,0 -2.75409,-0.587558 -4.57256,-1.462201 -1.99465,-0.95938 -4.70924,-3.58006 -5.74504,-5.546284 -0.90017,-1.708756 -1.97531,-4.791129 -2.35503,-6.751716 -0.6317,-3.261608 -0.22179,-6.844837 1.13364,-9.909706 0.69053,-1.561416 3.0057,-3.814668 4.98201,-4.84876 2.47023,-1.292536 4.33494,-1.755024 7.09959,-1.760848 l 2.42082,-0.0051 0.92019,0.919253 c 0.81489,0.814054 0.9202,1.03198 0.9202,1.904309 0,0.858862 -0.0924,1.058656 -0.72096,1.559559 -2.13768,1.70344 -3.78975,4.296813 -4.37361,6.86559 -0.32386,1.424874 0.0411,3.86264 0.75847,5.065535 1.56015,2.616263 5.46489,3.533965 9.42506,2.215105 1.60287,-0.533801 1.93951,-0.748208 3.33667,-2.125091 2.46428,-2.428516 3.04053,-2.824683 4.10869,-2.824683 1.30184,0 2.1159,0.814096 2.10069,2.100768 -0.0188,1.589619 -0.71739,4.890398 -1.2575,5.941591 -1.02316,1.991308 -2.46828,3.689735 -4.2121,4.950387 -4.15207,3.001636 -4.82016,3.427541 -6.40733,4.084626 -1.73307,0.717485 -2.7774,0.829903 -4.48247,0.482517 z M 133.61875,35.748733 c -0.87636,-0.387462 -1.44966,-1.266839 -1.44966,-2.223588 0,-0.592281 0.16946,-0.908207 0.79436,-1.480883 1.09768,-1.005946 2.07623,-1.004398 3.08551,0.005 1.0004,1.000397 1.011,1.99588 0.0324,3.034832 -0.83432,0.885706 -1.53499,1.074851 -2.46254,0.664755 z m 74.82794,-13.960239 c -0.69704,-0.63879 -0.80807,-0.869723 -0.80807,-1.680754 0,-0.811032 0.11103,-1.041965 0.80807,-1.680755 0.71575,-0.65593 0.90757,-0.727194 1.6789,-0.623736 1.31032,0.175751 1.99057,0.963278 1.99057,2.304491 0,1.341213 -0.68025,2.128739 -1.99057,2.30449 -0.77133,0.103458 -0.96315,0.0322 -1.6789,-0.623736 z"
       id="path2" /></g></svg>
