<svg xmlns="http://www.w3.org/2000/svg" width="48" height="48" viewBox="0 0 78.743 82.251">
  <path fill="#263459"
    d="M69.905 9.307c-2.583 32.254-16.65 49.944-46.17 54.708-12.615 2.037 32.72 16.171 47.108-6.975 14.388-23.147-.218-56.72-.938-47.733Z" />
  <path fill="#263459"
    d="M19.028 24.782c6.923 3.58 11.741 11.182 13.793 20.9 1.456 6.897 2.584 7.137 3.857.75 2.506-12.567 6.868-15.328 14.337-18.526 2.99-1.281 4.839-2.555 1.18-4.728-8.565-5.09-10.548-7.985-12.788-17.093-1.882-7.65-2.926-8.226-5.447-.938-3.312 9.578-8.347 11.968-14.605 14.517-3.776 1.538-7.25 1.538-.327 5.118z" />
  <path fill="#263459"
    d="M1.406 42.67C9 45.497 7.614 50.282 9.431 55.929c.811 2.52 1.231 2.808 2.239.238 2.06-5.257.815-9.445 7.528-11.637 3.194-1.043 2.894-2.469.497-3.151-4.737-1.348-5.509-4.232-7.029-9.468-1.125-3.875-1.059-3.92-2.81-.233-2.533 5.33-2.205 6.733-8.247 8.605-1.844.572-2.348 1.59-.203 2.389Z" />
</svg>