<svg xmlns="http://www.w3.org/2000/svg" width="48" height="48" viewBox="0 0 78.743 82.251">
  <path fill="#dce4fb"
    d="M73.77 51.199c-8.675-4.486-14.712-14.012-17.283-26.189-1.824-8.641-3.238-8.942-4.833-.939-3.14 15.747-8.606 19.206-17.964 23.214-3.747 1.604-6.063 3.2-1.48 5.924 10.734 6.377 13.217 10.005 16.025 21.418 2.358 9.585 3.666 10.306 6.824 1.175 4.15-12.002 10.46-14.996 18.3-18.19 4.732-1.928 9.085-1.928.41-6.413z" />
  <path fill="#dce4fb"
    d="M37.084 19.326c-9.514-3.54-7.779-9.536-10.055-16.61-1.017-3.16-1.543-3.52-2.805-.3-2.581 6.588-1.022 11.835-9.433 14.582-4.002 1.307-3.627 3.093-.623 3.948 5.936 1.69 6.902 5.303 8.807 11.863 1.41 4.856 1.327 4.912 3.522.292 3.173-6.678 2.763-8.437 10.334-10.782 2.31-.716 2.94-1.993.253-2.993z" />
  <path fill="#dce4fb"
    d="M7.954 42.577c-5.65-.048-7.74 4.246-7.892 9.605-.152 5.359 8.26 6.839 11.226 6.997 2.967.158 6.805-3.318 6.94-7.595.134-4.276-4.156-9.094-10.274-9.007z" />
</svg>